<svg width="876" height="343" viewBox="0 0 876 343" fill="none" xmlns="http://www.w3.org/2000/svg">
<path d="M661.682 271.591C660.136 273.015 658.303 273.727 656.182 273.727C653.939 273.727 652.015 273.015 650.409 271.591C648.803 270.167 647.576 268.136 646.727 265.5C645.879 262.864 645.455 259.727 645.455 256.091C645.455 252.424 645.879 249.288 646.727 246.682C647.576 244.045 648.803 242.015 650.409 240.591C652.015 239.167 653.939 238.455 656.182 238.455C658.303 238.455 660.136 239.167 661.682 240.591C663.227 242.015 664.424 244.045 665.273 246.682C666.121 249.288 666.545 252.424 666.545 256.091C666.545 259.727 666.121 262.864 665.273 265.5C664.424 268.136 663.227 270.167 661.682 271.591Z" fill="white"/>
<path d="M794.318 270.364C792.682 271.636 790.712 272.273 788.409 272.273C786.106 272.273 784.136 271.652 782.5 270.409C780.894 269.136 779.651 267.303 778.773 264.909C777.924 262.485 777.5 259.545 777.5 256.091C777.5 252.636 777.924 249.682 778.773 247.227C779.651 244.742 780.894 242.848 782.5 241.545C784.136 240.212 786.106 239.545 788.409 239.545C790.712 239.545 792.682 240.212 794.318 241.545C795.985 242.848 797.258 244.742 798.136 247.227C799.045 249.682 799.5 252.636 799.5 256.091C799.5 259.485 799.045 262.394 798.136 264.818C797.258 267.212 795.985 269.061 794.318 270.364Z" fill="white"/>
<path fill-rule="evenodd" clip-rule="evenodd" d="M876 20C876 8.95431 867.046 0 856 0H20C8.95431 0 0 8.9543 0 20V323C0 334.046 8.95428 343 20 343H856C867.046 343 876 334.046 876 323V20ZM586.955 288.773C589.47 291.227 592.485 292.455 596 292.455C598.242 292.455 600.318 291.894 602.227 290.773C604.136 289.621 605.682 288.091 606.864 286.182C608.076 284.242 608.697 282.091 608.727 279.727C608.697 276.273 607.394 273.318 604.818 270.864C602.273 268.409 599.333 267.182 596 267.182C592.485 267.182 589.47 268.409 586.955 270.864C584.47 273.318 583.242 276.273 583.273 279.727C583.242 283.273 584.47 286.288 586.955 288.773ZM624.136 275.136C627.015 280.53 631.151 284.742 636.545 287.773C641.939 290.773 648.424 292.273 656 292.273C663.576 292.273 670.061 290.773 675.455 287.773C680.849 284.742 684.985 280.53 687.864 275.136C690.742 269.712 692.182 263.424 692.182 256.273C692.182 249.121 690.742 242.848 687.864 237.455C684.985 232.03 680.849 227.818 675.455 224.818C670.061 221.788 663.576 220.273 656 220.273C648.424 220.273 641.939 221.788 636.545 224.818C631.151 227.818 627.015 232.03 624.136 237.455C621.258 242.848 619.818 249.121 619.818 256.273C619.818 263.424 621.258 269.712 624.136 275.136ZM726.727 227.818C726.727 224.153 723.756 221.182 720.091 221.182H714.545C707.818 221.182 702.364 226.636 702.364 233.364V278.455C702.364 285.383 707.98 291 714.909 291V291C721.838 291 727.455 285.383 727.455 278.455V254.636C727.455 251.97 728.015 249.652 729.136 247.682C730.258 245.682 731.788 244.136 733.727 243.045C735.697 241.924 737.909 241.364 740.364 241.364C741.667 241.364 743.227 241.47 745.045 241.682V241.682C747.334 241.949 749.636 240.242 749.636 237.939V224.44C749.636 222.532 748.39 220.808 746.5 220.545V220.545C745.439 220.364 744.364 220.273 743.273 220.273C739.545 220.273 736.288 221.409 733.5 223.682C730.8 225.907 728.812 229.395 727.536 234.147C727.487 234.328 727.324 234.455 727.137 234.455V234.455C726.911 234.455 726.727 234.271 726.727 234.045V227.818ZM769.5 315.636C774.5 317.636 780.5 318.636 787.5 318.636C794.864 318.636 801.303 317.545 806.818 315.364C812.333 313.182 816.606 310.015 819.636 305.864C822.697 301.742 824.227 296.727 824.227 290.818V233.727C824.227 226.799 818.61 221.182 811.682 221.182H805.227C801.863 221.182 799.136 223.909 799.136 227.273V233.04C799.136 233.219 798.992 233.364 798.813 233.364V233.364C798.679 233.364 798.559 233.281 798.51 233.157C797.603 230.873 796.297 228.776 794.591 226.864C792.833 224.864 790.651 223.273 788.045 222.091C785.439 220.879 782.409 220.273 778.955 220.273C774.349 220.273 769.955 221.5 765.773 223.955C761.621 226.409 758.227 230.273 755.591 235.545C752.985 240.818 751.682 247.667 751.682 256.091C751.682 264.152 752.924 270.682 755.409 275.682C757.924 280.682 761.258 284.333 765.409 286.636C769.591 288.939 774.167 290.091 779.136 290.091C782.288 290.091 785.182 289.667 787.818 288.818C790.455 287.939 792.712 286.682 794.591 285.045C796.396 283.444 797.754 281.521 798.664 279.276C798.731 279.11 798.89 279 799.069 279V279C799.307 279 799.5 279.193 799.5 279.431V290.818C799.5 294.939 798.424 297.788 796.273 299.364C794.151 300.939 791.47 301.727 788.227 301.727C786.318 301.727 784.591 301.515 783.045 301.091C781.53 300.697 780.288 300.045 779.318 299.136V299.136C777.593 297.519 775.764 295.545 773.399 295.545H766.278C759.281 295.545 753.574 301.963 757.909 307.455V307.455C760.667 310.939 764.53 313.667 769.5 315.636Z" fill="white"/>
</svg>
